Coordinates
version=1
nRows=4
nColumns=63
inDegrees=yes

Units are S.I. units (second, meters, Newtons, ...)
If the header above contains a line with 'inDegrees', this indicates whether rotational values are in degrees (yes) or radians (no).

endheader
time	pelvis_tilt	pelvis_list	pelvis_rotation	pelvis_tx	pelvis_ty	pelvis_tz	hip_flexion_r	hip_adduction_r	hip_rotation_r	knee_angle_r	knee_angle_r_beta	ankle_angle_r	subtalar_angle_r	mtp_angle_r	hip_flexion_l	hip_adduction_l	hip_rotation_l	knee_angle_l	knee_angle_l_beta	ankle_angle_l	subtalar_angle_l	mtp_angle_l	L5_S1_Flex_Ext	L5_S1_Lat_Bending	L5_S1_axial_rotation	L4_L5_Flex_Ext	L4_L5_Lat_Bending	L4_L5_axial_rotation	L3_L4_Flex_Ext	L3_L4_Lat_Bending	L3_L4_axial_rotation	L2_L3_Flex_Ext	L2_L3_Lat_Bending	L2_L3_axial_rotation	L1_L2_Flex_Ext	L1_L2_Lat_Bending	L1_L2_axial_rotation	L1_T12_Flex_Ext	L1_T12_Lat_Bending	L1_T12_axial_rotation	Abs_r3	Abs_r2	Abs_r1	Abs_t1	Abs_t2	neck_flexion	neck_bending	neck_rotation	arm_flex_r	arm_add_r	arm_rot_r	elbow_flex_r	pro_sup_r	wrist_flex_r	wrist_dev_r	arm_flex_l	arm_add_l	arm_rot_l	elbow_flex_l	pro_sup_l	wrist_flex_l	wrist_dev_l
      1.06250000	      2.15585497	     -6.07775023	     92.24034446	      0.13047991	      0.65635613	      0.79061539	     15.33321754	     -0.67193168	     -7.87856116	     18.44459871	      0.32191898	     32.17403565	     -0.07680692	      0.00000000	      9.72555528	      0.54942966	      6.00127173	      5.91876026	      0.10330185	     28.12783854	      1.61417293	      0.00000000	     -0.00423230	      0.39002966	     -0.59231116	     -0.00785980	      0.51873945	     -0.62933060	     -0.00695324	      0.94831813	     -0.62933060	     -0.00483709	      0.94831813	     -0.51827226	     -0.00393011	      0.79534849	     -0.48125281	     -0.00241833	      0.60415595	     -0.44423337	     -0.03023087	      4.41209357	     -3.29425695	      0.00000000	      0.00000000	     24.60755172	     -3.77865883	      3.50262119	      6.95429265	    -19.31335933	     55.56346749	     31.85598504	     62.50285154	     -8.73885629	     -7.61350724	      3.28845179	    -15.79621793	     39.44001311	     48.34956981	     87.89574094	    -11.48898692	      3.71204031
      1.08333333	      2.34486693	     -6.38742819	     92.79321472	      0.12951917	      0.65456983	      0.79153004	     16.33121188	     -0.43408375	     -6.68965977	     19.66458088	      0.34321168	     31.30815270	     -3.98492421	      0.00000000	     10.28125064	      0.58483818	      8.71720019	      6.05448572	      0.10567071	     27.79794614	     -0.68038479	      0.00000000	     -0.06206054	      0.49242845	     -0.53789966	     -0.11525262	      0.65492983	     -0.57151839	     -0.10195926	      1.19729052	     -0.57151839	     -0.07092899	      1.19729052	     -0.47066220	     -0.05762942	      1.00416009	     -0.43704347	     -0.03546139	      0.76277166	     -0.40342474	     -0.44329221	      5.57044906	     -2.99163653	      0.00000000	      0.00000000	     24.03146262	     -3.94493669	      3.68594990	      8.49173513	    -21.22710498	     65.89846629	     28.80831709	     53.78329391	     -7.72841290	     -8.41473996	      1.53236554	    -17.27245654	     37.94070962	     50.10123839	     87.89141491	    -11.90203312	      2.51360062
      1.10416667	      2.33840108	     -6.63924886	     93.51823548	      0.12858516	      0.65286379	      0.79316693	     17.23823996	     -0.62735879	     -6.44221279	     20.94681826	      0.36559095	     30.57260174	     -6.71488969	      0.00000000	     11.02734958	      0.84546235	     10.96195529	      6.42495405	      0.11213660	     27.78764018	     -1.98840974	      0.00000000	     -0.10854264	      0.58100319	     -0.46694807	     -0.20157454	      0.77273424	     -0.49613232	     -0.17832471	      1.41265116	     -0.49613232	     -0.12405338	      1.41265116	     -0.40857956	     -0.10079270	      1.18478171	     -0.37939530	     -0.06202127	      0.89997394	     -0.35021105	     -0.77530923	      6.57242430	     -2.59702506	      0.00000000	      0.00000000	     23.17592967	     -3.70523528	      4.10554134	     10.44112189	    -22.97228773	     79.15880541	     26.31677407	     43.85161450	     -6.29478710	     -8.89083013	     -0.27424738	    -18.74422476	     35.28543389	     52.32766427	     87.47719309	     -9.77035821	      2.46036498
      1.12500000	      2.08643596	     -6.84164466	     94.08484339	      0.12820940	      0.65100366	      0.79541631	     18.18276105	     -1.15247162	     -6.54719179	     22.34582327	      0.39000819	     30.18956595	     -8.53071614	      0.00000000	     12.12143849	      1.32632523	     11.41350700	      7.43411481	      0.12974978	     28.61024215	     -1.58217291	      0.00000000	     -0.12148290	      0.64883425	     -0.18984798	     -0.22560589	      0.86294955	     -0.20171348	     -0.19958425	      1.57757559	     -0.20171348	     -0.13884280	      1.57757559	     -0.16611698	     -0.11280902	      1.32310280	     -0.15425148	     -0.06941533	      1.00504425	     -0.14238598	     -0.86774018	      7.33974277	     -1.05587749	      0.00000000	      0.00000000	     22.12048382	     -4.04358837	      3.46518581	     10.21231257	    -24.84095561	     83.66587187	     24.96808020	     46.77375104	     -5.86262332	     -6.51614661	     -0.60279979	    -20.71129401	     34.39454372	     54.29022776	     86.14214343	     -7.56506333	      3.01091914
